<?xml version="1.0" encoding="UTF-8" standalone="no"?>
<!DOCTYPE svg PUBLIC "-//W3C//DTD SVG 1.1//EN" "http://www.w3.org/Graphics/SVG/1.1/DTD/svg11.dtd">
<svg width="100%" height="100%" viewBox="0 0 2048 2048" version="1.1" xmlns="http://www.w3.org/2000/svg" xmlns:xlink="http://www.w3.org/1999/xlink" xml:space="preserve" xmlns:serif="http://www.serif.com/" style="fill-rule:evenodd;clip-rule:evenodd;stroke-linecap:round;stroke-linejoin:round;stroke-miterlimit:1.5;">
    <g id="レイヤー5">
    </g>
    <g id="レイヤー6">
        <path d="M1122.16,1.418C723.59,1.681 1.721,209.061 -1.474,1127.69C-2.149,1321.84 117.255,1642.21 515.82,1641.32C978.682,1640.28 1025.1,817.998 1026.84,409.003C1027.62,225.747 1027.82,210.344 1027.82,210.344C1027.82,210.344 1027.76,205 1122.82,205.567C1428.1,207.388 1433.81,618.722 1433.81,618.722L1642.45,613.014C1642.45,613.014 1634.88,1.08 1122.16,1.418ZM816.052,232.692C816.052,232.692 854.086,1308.15 574.397,1404.76C361.463,1478.31 160.148,1220.12 222.058,926.233C357.658,282.546 816.052,232.692 816.052,232.692Z" style="stroke:black;stroke-width:1px;"/>
    </g>
</svg>
