<?xml version="1.0" encoding="UTF-8" standalone="no"?>
<!DOCTYPE svg PUBLIC "-//W3C//DTD SVG 1.1//EN" "http://www.w3.org/Graphics/SVG/1.1/DTD/svg11.dtd">
<svg width="100%" height="100%" viewBox="0 0 2048 2048" version="1.1" xmlns="http://www.w3.org/2000/svg" xmlns:xlink="http://www.w3.org/1999/xlink" xml:space="preserve" xmlns:serif="http://www.serif.com/" style="fill-rule:evenodd;clip-rule:evenodd;stroke-linecap:round;stroke-linejoin:round;stroke-miterlimit:1.5;">
    <g id="レイヤー6">
        <path d="M609.612,327.372L617.185,1125.82C617.185,1125.82 756.5,1131.08 819.183,1128.4C1023.54,1119.65 1431.94,812.139 1433.48,510.948C1435.08,197.48 1224.16,10.352 1024.15,9.201C412.409,5.68 4.364,551.598 2.851,919.792C1.293,1299.29 205.526,1638.31 611.647,1639C1024.22,1639.7 1229.69,1433.06 1229.69,1433.06L1227.94,1232.41C1227.94,1232.41 482.555,1719.72 261.963,1106.7C91.974,634.307 609.612,327.372 609.612,327.372ZM819.46,257.339C819.46,257.339 925.312,211.41 1022.42,215.121C1124.19,219.009 1229.3,315.808 1226.65,516.74C1222.81,809.056 815.04,928.973 815.04,928.973L819.46,257.339Z" style="stroke:black;stroke-width:1px;"/>
    </g>
</svg>
