<?xml version="1.0" encoding="UTF-8" standalone="no"?>
<!DOCTYPE svg PUBLIC "-//W3C//DTD SVG 1.1//EN" "http://www.w3.org/Graphics/SVG/1.1/DTD/svg11.dtd">
<svg width="100%" height="100%" viewBox="0 0 2048 2048" version="1.1" xmlns="http://www.w3.org/2000/svg" xmlns:xlink="http://www.w3.org/1999/xlink" xml:space="preserve" xmlns:serif="http://www.serif.com/" style="fill-rule:evenodd;clip-rule:evenodd;stroke-linecap:round;stroke-linejoin:round;stroke-miterlimit:1.5;">
    <g id="レイヤー4">
    </g>
    <g id="レイヤー6">
        <path d="M1227.52,0.651L822.449,0.875C822.449,0.875 396.44,-29.18 127.011,304.052C43.383,407.483 2.183,506.268 2.668,826.336C2.882,967.382 14.704,1272.37 202.983,1434.03C483.657,1675.01 824.207,1639.22 824.207,1639.22L1022.79,1636.16L1237,1432.76L1227.52,0.651ZM1024.01,211.79L1029.84,1232.27L820.847,1431.92C820.847,1431.92 615.459,1451.42 467.321,1358.1C253.277,1223.24 204.013,1027.98 205.04,818.676C206.273,567.559 223.651,395.191 436.16,283.274C643.258,174.207 1024.01,211.79 1024.01,211.79Z" style="stroke:black;stroke-width:1px;"/>
    </g>
</svg>
