<?xml version="1.0" encoding="UTF-8" standalone="no"?>
<!DOCTYPE svg PUBLIC "-//W3C//DTD SVG 1.1//EN" "http://www.w3.org/Graphics/SVG/1.1/DTD/svg11.dtd">
<svg width="100%" height="100%" viewBox="0 0 2048 2048" version="1.1" xmlns="http://www.w3.org/2000/svg" xmlns:xlink="http://www.w3.org/1999/xlink" xml:space="preserve" xmlns:serif="http://www.serif.com/" style="fill-rule:evenodd;clip-rule:evenodd;stroke-linecap:round;stroke-linejoin:round;stroke-miterlimit:1.5;">
    <g id="レイヤー6">
        <path d="M1231.54,312.877C1231.54,312.877 1126.69,206.275 814.875,206.221C606.029,206.185 348.289,321.951 348.289,321.951C348.289,321.951 359.474,231.966 374.438,163.273C385.473,112.612 417.477,0.282 417.477,0.282L174.948,0.817C174.948,0.817 82.198,283.728 73.958,609.877C68.72,817.22 76.298,1223.46 45.582,1430.26C35.278,1499.63 -1.312,1636.09 -1.312,1636.09L261.279,1634.89C261.279,1634.89 276.403,1567.74 282.09,1535.83C287.549,1505.19 295.008,1447.29 295.008,1447.29C295.008,1447.29 417.198,1635.76 826.46,1638.48C1032.61,1639.86 1231.04,1429.21 1231.22,1233.86C1231.48,944.5 993.74,770.752 616.562,768.244C361.455,766.547 310.152,773.308 310.152,773.308C310.152,773.308 307.653,713.01 311.54,654.238C314.124,615.176 321.879,540.66 321.879,540.66C321.879,540.66 549.958,424.881 819.67,419.773C1117.94,414.125 1231.44,505.01 1231.44,505.01L1231.54,312.877ZM315.772,947.683C315.772,947.683 460.052,929.189 616.482,932.049C794.447,935.302 992.864,1023.83 968.755,1225.52C951.572,1369.27 816.998,1434.43 718.881,1434.19C410.315,1433.41 311.832,1225.16 311.832,1225.16L315.772,947.683Z" style="stroke:black;stroke-width:1px;"/>
    </g>
</svg>
